<?xml version="1.0" encoding="utf-8"?>

<!-- License Agreement at http://iconmonstr.com/license/ -->

<!DOCTYPE svg PUBLIC "-//W3C//DTD SVG 1.1//EN" "http://www.w3.org/Graphics/SVG/1.1/DTD/svg11.dtd">
<svg version="1.1" xmlns="http://www.w3.org/2000/svg" xmlns:xlink="http://www.w3.org/1999/xlink" x="0px" y="0px"
	 width="512px" height="512px" viewBox="0 0 512 512" style="enable-background:new 0 0 512 512;" xml:space="preserve">
<path id="puzzle-13" d="M256,50C142.237,50,50,142.229,50,256c0,113.763,92.237,206,206,206s206-92.237,206-206
	C462,142.229,369.763,50,256,50z M341.834,239.479c0,11.299-8.601,14.266-15.541,7.275c-3.42-3.42-6.287-7.921-14.686-7.921
	c-9.354,0-21.273,9.514-21.273,25.75c0,16.228,11.919,25.75,21.273,25.75c8.398,0,11.266-4.493,14.686-7.913
	c6.94-7.008,15.541-4.023,15.541,7.275v52.138H289.68c-11.266,0-14.283-8.584-7.242-15.558c3.42-3.42,7.896-6.271,7.896-14.669
	c0-9.338-9.506-21.273-25.75-21.273c-16.229,0-25.75,11.936-25.75,21.273c0,8.398,4.493,11.249,7.913,14.669
	c7.007,6.974,4.023,15.558-7.276,15.558h-52.137v-52.138c0-11.299-8.583-14.283-15.558-7.275c-3.42,3.42-6.27,7.913-14.668,7.913
	c-9.338,0-21.274-9.522-21.274-25.75c0-16.237,11.936-25.75,21.274-25.75c8.399,0,11.249,4.501,14.668,7.921
	c6.974,6.991,15.558,4.023,15.558-7.275v-52.146h52.137c11.299,0,14.283-8.575,7.276-15.565c-3.42-3.42-7.913-6.262-7.913-14.661
	c0-9.329,9.522-21.274,25.75-21.274c16.244,0,25.75,11.945,25.75,21.274c0,8.399-4.477,11.241-7.896,14.661
	c-7.041,6.991-4.023,15.565,7.242,15.565h52.154V239.479z"/>
</svg>
