<?xml version="1.0" encoding="utf-8"?>

<!-- License Agreement at http://iconmonstr.com/license/ -->

<!DOCTYPE svg PUBLIC "-//W3C//DTD SVG 1.1//EN" "http://www.w3.org/Graphics/SVG/1.1/DTD/svg11.dtd">
<svg version="1.1" xmlns="http://www.w3.org/2000/svg" xmlns:xlink="http://www.w3.org/1999/xlink" x="0px" y="0px"
	 width="512px" height="512px" viewBox="0 0 512 512" style="enable-background:new 0 0 512 512;" xml:space="preserve">
<path id="puzzle-15" d="M118.667,256c0-21.643-15.893-34.333-28.365-34.333c-11.182,0-15.021,6.002-19.581,10.562
	C61.467,241.55,50,237.593,50,222.521V153h206v69.521c0,16.002,9.874,23.295,19.044,23.295c5.7,0,11.534-2.675,16.362-7.52
	c4.861-5.079,6.672-8.047,13.479-8.047c8.08,0,19.781,9.17,19.781,25.75s-11.701,25.75-19.781,25.75
	c-6.807,0-8.6-2.967-13.479-8.047c-4.828-4.845-10.662-7.52-16.362-7.52c-9.17,0-19.044,7.285-19.044,23.295V359h-69.522
	c-15.054,0-19.027,11.434-9.689,20.754c4.56,4.561,10.544,8.35,10.544,19.547c0,12.439-12.69,28.365-34.333,28.365
	c-21.66,0-34.333-15.926-34.333-28.365c0-11.197,5.968-14.986,10.528-19.547c9.388-9.32,5.365-20.754-9.656-20.754H50v-69.521
	c0-15.071,11.467-19.027,20.721-9.707c4.56,4.561,8.399,10.562,19.581,10.562C102.774,290.334,118.667,277.643,118.667,256z
	 M335.194,132.246c9.388,9.321,5.364,20.754-9.656,20.754h-52.372v69.521c0,9.146,2.348,7.595,7.796,1.87
	c4.208-4.502,10.578-11.308,23.923-11.308c17.837,0,36.948,17.242,36.948,42.916c0,25.684-19.111,42.916-36.948,42.916
	c-13.345,0-19.715-6.806-23.923-11.299c-5.448-5.699-7.796-7.309-7.796,1.861V359H462V153h-69.505
	c-15.088,0-19.044-11.433-9.724-20.754c4.561-4.56,10.562-8.349,10.562-19.547c0-12.439-12.707-28.365-34.333-28.365
	c-21.66,0-34.334,15.926-34.334,28.365C324.666,123.897,330.635,127.687,335.194,132.246z"/>
</svg>
